<mxfile host="app.diagrams.net" agent="Mozilla/5.0 (X11; Linux x86_64; rv:128.0) Gecko/20100101 Firefox/128.0" version="27.1.6">
  <diagram name="Page-1" id="Dc-mUwGP-GDSX1sPWJ-V">
    <mxGraphModel dx="679" dy="358" grid="1" gridSize="10" guides="1" tooltips="1" connect="1" arrows="1" fold="1" page="1" pageScale="1" pageWidth="850" pageHeight="1100" math="0" shadow="0">
      <root>
        <mxCell id="0" />
        <mxCell id="1" parent="0" />
        <mxCell id="Ih7WWjUxtGD7TBrJaObF-1" value="" style="whiteSpace=wrap;html=1;aspect=fixed;align=center;" vertex="1" parent="1">
          <mxGeometry x="340" y="310" width="80" height="80" as="geometry" />
        </mxCell>
        <mxCell id="Ih7WWjUxtGD7TBrJaObF-3" value="" style="rounded=0;whiteSpace=wrap;html=1;" vertex="1" parent="1">
          <mxGeometry x="420" y="310" width="190" height="80" as="geometry" />
        </mxCell>
        <mxCell id="Ih7WWjUxtGD7TBrJaObF-4" value="" style="rounded=0;whiteSpace=wrap;html=1;" vertex="1" parent="1">
          <mxGeometry x="150" y="310" width="190" height="80" as="geometry" />
        </mxCell>
        <mxCell id="Ih7WWjUxtGD7TBrJaObF-7" value="" style="endArrow=open;dashed=1;html=1;dashPattern=1 3;strokeWidth=2;rounded=0;endFill=0;" edge="1" parent="1">
          <mxGeometry width="50" height="50" relative="1" as="geometry">
            <mxPoint x="130" y="350" as="sourcePoint" />
            <mxPoint x="640" y="350" as="targetPoint" />
          </mxGeometry>
        </mxCell>
        <mxCell id="Ih7WWjUxtGD7TBrJaObF-8" value="" style="endArrow=open;dashed=1;html=1;dashPattern=1 3;strokeWidth=2;rounded=0;endFill=0;" edge="1" parent="1">
          <mxGeometry width="50" height="50" relative="1" as="geometry">
            <mxPoint x="380" y="450" as="sourcePoint" />
            <mxPoint x="380" y="250" as="targetPoint" />
          </mxGeometry>
        </mxCell>
        <mxCell id="Ih7WWjUxtGD7TBrJaObF-10" value="&lt;b style=&quot;color: rgba(0, 0, 0, 0);&quot;&gt;&lt;span style=&quot;color: light-dark(rgb(0, 0, 0), rgb(0, 204, 0));&quot;&gt;0&lt;/span&gt;&lt;/b&gt;" style="text;html=1;align=center;verticalAlign=middle;resizable=0;points=[];autosize=1;strokeColor=none;fillColor=none;" vertex="1" parent="1">
          <mxGeometry x="356" y="346" width="30" height="30" as="geometry" />
        </mxCell>
        <mxCell id="Ih7WWjUxtGD7TBrJaObF-12" value="" style="ellipse;whiteSpace=wrap;html=1;aspect=fixed;fillColor=#60a917;fontColor=#ffffff;strokeColor=#2D7600;" vertex="1" parent="1">
          <mxGeometry x="335" y="344" width="10" height="10" as="geometry" />
        </mxCell>
        <mxCell id="Ih7WWjUxtGD7TBrJaObF-13" value="" style="ellipse;whiteSpace=wrap;html=1;aspect=fixed;fillColor=#60a917;fontColor=#ffffff;strokeColor=#2D7600;" vertex="1" parent="1">
          <mxGeometry x="375" y="345" width="10" height="10" as="geometry" />
        </mxCell>
        <mxCell id="Ih7WWjUxtGD7TBrJaObF-15" value="" style="ellipse;whiteSpace=wrap;html=1;aspect=fixed;fillColor=#60a917;fontColor=#ffffff;strokeColor=#2D7600;" vertex="1" parent="1">
          <mxGeometry x="145" y="344" width="10" height="10" as="geometry" />
        </mxCell>
        <mxCell id="Ih7WWjUxtGD7TBrJaObF-16" value="" style="ellipse;whiteSpace=wrap;html=1;aspect=fixed;fillColor=#60a917;fontColor=#ffffff;strokeColor=#2D7600;" vertex="1" parent="1">
          <mxGeometry x="375" y="385" width="10" height="10" as="geometry" />
        </mxCell>
        <mxCell id="Ih7WWjUxtGD7TBrJaObF-17" value="" style="ellipse;whiteSpace=wrap;html=1;aspect=fixed;fillColor=#60a917;fontColor=#ffffff;strokeColor=#2D7600;" vertex="1" parent="1">
          <mxGeometry x="375" y="306" width="10" height="10" as="geometry" />
        </mxCell>
        <mxCell id="Ih7WWjUxtGD7TBrJaObF-18" value="" style="ellipse;whiteSpace=wrap;html=1;aspect=fixed;fillColor=#60a917;fontColor=#ffffff;strokeColor=#2D7600;" vertex="1" parent="1">
          <mxGeometry x="415" y="345" width="10" height="10" as="geometry" />
        </mxCell>
        <mxCell id="Ih7WWjUxtGD7TBrJaObF-22" value="" style="ellipse;whiteSpace=wrap;html=1;aspect=fixed;fillColor=#60a917;fontColor=#ffffff;strokeColor=#2D7600;" vertex="1" parent="1">
          <mxGeometry x="375" y="420" width="10" height="10" as="geometry" />
        </mxCell>
        <mxCell id="Ih7WWjUxtGD7TBrJaObF-23" value="" style="ellipse;whiteSpace=wrap;html=1;aspect=fixed;fillColor=#60a917;fontColor=#ffffff;strokeColor=#2D7600;" vertex="1" parent="1">
          <mxGeometry x="375" y="269" width="10" height="10" as="geometry" />
        </mxCell>
        <mxCell id="Ih7WWjUxtGD7TBrJaObF-24" value="" style="ellipse;whiteSpace=wrap;html=1;aspect=fixed;fillColor=#60a917;fontColor=#ffffff;strokeColor=#2D7600;" vertex="1" parent="1">
          <mxGeometry x="605" y="344" width="10" height="10" as="geometry" />
        </mxCell>
        <mxCell id="Ih7WWjUxtGD7TBrJaObF-27" value="&lt;span style=&quot;color: light-dark(rgb(0, 0, 0), rgb(0, 204, 0));&quot;&gt;&lt;b&gt;- 512&lt;/b&gt;&lt;/span&gt;" style="text;html=1;align=center;verticalAlign=middle;resizable=0;points=[];autosize=1;strokeColor=none;fillColor=none;" vertex="1" parent="1">
          <mxGeometry x="140" y="346" width="50" height="30" as="geometry" />
        </mxCell>
        <mxCell id="Ih7WWjUxtGD7TBrJaObF-28" value="&lt;span style=&quot;color: light-dark(rgb(0, 0, 0), rgb(0, 204, 0));&quot;&gt;&lt;b&gt;512&lt;/b&gt;&lt;/span&gt;" style="text;html=1;align=center;verticalAlign=middle;resizable=0;points=[];autosize=1;strokeColor=none;fillColor=none;" vertex="1" parent="1">
          <mxGeometry x="575" y="346" width="40" height="30" as="geometry" />
        </mxCell>
        <mxCell id="Ih7WWjUxtGD7TBrJaObF-29" value="&lt;span style=&quot;color: light-dark(rgb(0, 0, 0), rgb(0, 204, 0));&quot;&gt;&lt;b&gt;- 512&lt;/b&gt;&lt;/span&gt;" style="text;html=1;align=center;verticalAlign=middle;resizable=0;points=[];autosize=1;strokeColor=none;fillColor=none;" vertex="1" parent="1">
          <mxGeometry x="330" y="410" width="50" height="30" as="geometry" />
        </mxCell>
        <mxCell id="Ih7WWjUxtGD7TBrJaObF-30" value="&lt;span style=&quot;color: light-dark(rgb(0, 0, 0), rgb(0, 204, 0));&quot;&gt;&lt;b&gt;512&lt;/b&gt;&lt;/span&gt;" style="text;html=1;align=center;verticalAlign=middle;resizable=0;points=[];autosize=1;strokeColor=none;fillColor=none;" vertex="1" parent="1">
          <mxGeometry x="335" y="259" width="40" height="30" as="geometry" />
        </mxCell>
        <mxCell id="Ih7WWjUxtGD7TBrJaObF-31" value="&lt;span style=&quot;color: light-dark(rgb(0, 0, 0), rgb(0, 204, 0));&quot;&gt;&lt;b&gt;75&lt;/b&gt;&lt;/span&gt;" style="text;html=1;align=center;verticalAlign=middle;resizable=0;points=[];autosize=1;strokeColor=none;fillColor=none;" vertex="1" parent="1">
          <mxGeometry x="386" y="346" width="40" height="30" as="geometry" />
        </mxCell>
        <mxCell id="Ih7WWjUxtGD7TBrJaObF-32" value="&lt;span style=&quot;color: light-dark(rgb(0, 0, 0), rgb(0, 204, 0));&quot;&gt;&lt;b&gt;- 75&lt;/b&gt;&lt;/span&gt;" style="text;html=1;align=center;verticalAlign=middle;resizable=0;points=[];autosize=1;strokeColor=none;fillColor=none;" vertex="1" parent="1">
          <mxGeometry x="305" y="346" width="40" height="30" as="geometry" />
        </mxCell>
        <mxCell id="Ih7WWjUxtGD7TBrJaObF-33" value="&lt;span style=&quot;color: light-dark(rgb(0, 0, 0), rgb(0, 204, 0));&quot;&gt;&lt;b&gt;- 75&lt;/b&gt;&lt;/span&gt;" style="text;html=1;align=center;verticalAlign=middle;resizable=0;points=[];autosize=1;strokeColor=none;fillColor=none;" vertex="1" parent="1">
          <mxGeometry x="340" y="385" width="40" height="30" as="geometry" />
        </mxCell>
        <mxCell id="Ih7WWjUxtGD7TBrJaObF-34" value="&lt;span style=&quot;color: light-dark(rgb(0, 0, 0), rgb(0, 204, 0));&quot;&gt;&lt;b&gt;75&lt;/b&gt;&lt;/span&gt;" style="text;html=1;align=center;verticalAlign=middle;resizable=0;points=[];autosize=1;strokeColor=none;fillColor=none;" vertex="1" parent="1">
          <mxGeometry x="340" y="280" width="40" height="30" as="geometry" />
        </mxCell>
        <mxCell id="Ih7WWjUxtGD7TBrJaObF-38" value="" style="endArrow=none;html=1;rounded=0;strokeWidth=3;" edge="1" parent="1">
          <mxGeometry width="50" height="50" relative="1" as="geometry">
            <mxPoint x="540" y="409" as="sourcePoint" />
            <mxPoint x="540" y="289" as="targetPoint" />
          </mxGeometry>
        </mxCell>
        <mxCell id="Ih7WWjUxtGD7TBrJaObF-40" value="" style="endArrow=none;html=1;rounded=0;strokeWidth=3;" edge="1" parent="1">
          <mxGeometry width="50" height="50" relative="1" as="geometry">
            <mxPoint x="220" y="410" as="sourcePoint" />
            <mxPoint x="220" y="290" as="targetPoint" />
          </mxGeometry>
        </mxCell>
        <mxCell id="Ih7WWjUxtGD7TBrJaObF-41" value="&lt;span style=&quot;color: light-dark(rgb(0, 0, 0), rgb(0, 204, 0));&quot;&gt;&lt;b&gt;70 %&lt;/b&gt;&lt;/span&gt;" style="text;html=1;align=center;verticalAlign=middle;resizable=0;points=[];autosize=1;strokeColor=none;fillColor=none;" vertex="1" parent="1">
          <mxGeometry x="200" y="415" width="50" height="30" as="geometry" />
        </mxCell>
        <mxCell id="Ih7WWjUxtGD7TBrJaObF-42" value="&lt;span style=&quot;color: light-dark(rgb(0, 0, 0), rgb(0, 204, 0));&quot;&gt;&lt;b&gt;70 %&lt;/b&gt;&lt;/span&gt;" style="text;html=1;align=center;verticalAlign=middle;resizable=0;points=[];autosize=1;strokeColor=none;fillColor=none;" vertex="1" parent="1">
          <mxGeometry x="520" y="415" width="50" height="30" as="geometry" />
        </mxCell>
        <mxCell id="Ih7WWjUxtGD7TBrJaObF-43" value="&lt;span style=&quot;color: light-dark(rgb(0, 0, 0), rgb(0, 204, 0));&quot;&gt;&lt;b&gt;Sharp turn&lt;/b&gt;&lt;/span&gt;" style="text;html=1;align=center;verticalAlign=middle;resizable=0;points=[];autosize=1;strokeColor=none;fillColor=none;" vertex="1" parent="1">
          <mxGeometry x="140" y="400" width="80" height="30" as="geometry" />
        </mxCell>
        <mxCell id="Ih7WWjUxtGD7TBrJaObF-44" value="&lt;span style=&quot;color: light-dark(rgb(0, 0, 0), rgb(0, 204, 0));&quot;&gt;&lt;b&gt;Sharp turn&lt;/b&gt;&lt;/span&gt;" style="text;html=1;align=center;verticalAlign=middle;resizable=0;points=[];autosize=1;strokeColor=none;fillColor=none;" vertex="1" parent="1">
          <mxGeometry x="540" y="400" width="80" height="30" as="geometry" />
        </mxCell>
      </root>
    </mxGraphModel>
  </diagram>
</mxfile>
